<svg xmlns="http://www.w3.org/2000/svg" viewBox="0 0 200 200">
  
  <g transform="rotate(45 100 100)" fill="#c96442">
    <rect x="50" y="50" width="20" height="20" rx="2" ry="2"/>
    <rect x="50" y="75" width="20" height="20" rx="2" ry="2"/>
    <path fill-rule="evenodd" d="M 70,128 L 70,102 A 2,2 0 0 0 68,100 L 52,100 A 2,2 0 0 0 50,102 L 50,148 A 2,2 0 0 0 52,150 L 148,150 A 2,2 0 0 0 150,148 L 150,52 A 2,2 0 0 0 148,50 L 82,50 A 2,2 0 0 0 80,52 L 80,118 A 2,2 0 0 0 82,120 L 128,120 A 2,2 0 0 1 130,122 L 130,128 A 2,2 0 0 1 128,130 L 72,130 A 2,2 0 0 1 70,128 Z M 102,70 L 128,70 A 2,2 0 0 1 130,72 L 130,98 A 2,2 0 0 1 128,100 L 102,100 A 2,2 0 0 1 100,98 L 100,72 A 2,2 0 0 1 102,70 Z"/>
  </g>
</svg>
